<svg width="99" height="90" viewBox="0 0 99 90" fill="none" xmlns="http://www.w3.org/2000/svg">
<path d="M53.7063 1.50308C51.3276 -0.501026 47.6531 -0.501026 45.2937 1.50308L1.97363 38.0691C0.117055 39.6513 -0.501803 42.0949 0.426484 44.2397C1.35477 46.3844 3.61747 47.8084 6.17026 47.8084H9.26455V78.7489C9.26455 84.9546 14.8149 90 21.6417 90H77.339C84.1657 90 89.7161 84.9546 89.7161 78.7489V47.8084H92.8104C95.3632 47.8084 97.6452 46.3844 98.5735 44.2397C99.5018 42.0949 98.8829 39.6338 97.0264 38.0691L53.7063 1.50308ZM46.396 56.2467H52.5846C57.7095 56.2467 61.8675 60.0264 61.8675 64.685V81.5617H37.1132V64.685C37.1132 60.0264 41.2711 56.2467 46.396 56.2467Z" fill="black"/>
</svg>
